<?xml version="1.0" encoding="UTF-8" standalone="no"?>
<!-- Created with Inkscape (http://www.inkscape.org/) -->

<svg
   width="149.99091mm"
   height="122.83725mm"
   viewBox="0 0 149.99091 122.83725"
   version="1.1"
   id="svg1"
   xml:space="preserve"
   xmlns:xlink="http://www.w3.org/1999/xlink"
   xmlns="http://www.w3.org/2000/svg"
   xmlns:svg="http://www.w3.org/2000/svg"><defs
     id="defs1"><linearGradient
       id="linearGradient1"><stop
         style="stop-color:#596aef;stop-opacity:1;"
         offset="0.33916098"
         id="stop1" /><stop
         style="stop-color:#8e17e6;stop-opacity:1;"
         offset="0.60671997"
         id="stop2" /></linearGradient><linearGradient
       xlink:href="#linearGradient1"
       id="linearGradient2"
       x1="168.68634"
       y1="71.425743"
       x2="27.35454"
       y2="182.36359"
       gradientUnits="userSpaceOnUse" /></defs><g
     id="layer1"
     transform="translate(-31.105699,-57.817106)"><path
       style="fill:url(#linearGradient2);fill-opacity:1"
       d="m 31.631001,180.10839 c -1.337428,-1.42884 -0.142789,-4.74058 3.833853,-10.62807 2.389677,-3.53796 7.50249,-11.2233 11.361806,-17.07855 3.859317,-5.85524 8.98465,-13.59398 11.38963,-17.19721 2.40498,-3.60322 7.80856,-11.71048 12.007957,-18.01613 4.199396,-6.30564 13.034413,-19.572057 19.633369,-29.480927 6.59896,-9.90887 13.070574,-19.66671 14.381354,-21.68408 4.25504,-6.54875 6.16617,-8.20632 9.46169,-8.20632 3.68206,0 4.49088,0.80604 11.1921,11.15366 2.88183,4.44997 9.95298,15.31901 15.71366,24.15343 5.76067,8.834427 14.4407,22.249527 19.28893,29.811337 4.84824,7.56182 11.66359,18.02222 15.14521,23.24533 6.36888,9.55454 7.49731,12.81789 4.40105,12.72746 -1.27506,-0.0373 -39.03978,-27.6283 -55.18944,-40.32163 -2.52951,-1.98815 -5.53215,-4.13038 -6.67253,-4.76051 -2.38143,-1.3159 0.16577,-4.3312 -23.247894,27.52024 -23.612743,32.12229 -27.286606,36.86507 -29.506508,38.09149 -1.730955,0.9563 -5.460958,1.21643 -17.442512,1.21643 -8.382391,0 -15.470668,-0.24568 -15.751725,-0.54595 z m 99.469399,-0.0122 c -1.42887,-0.30241 -10.79327,-7.46825 -19.30418,-14.77197 -4.7801,-4.1021 -4.49203,-5.50387 3.2867,-15.99336 7.90595,-10.66106 8.20152,-10.74095 16.47574,-4.45346 3.1484,2.39243 12.96797,9.64588 21.82127,16.11878 20.00319,14.62489 24.14538,17.86124 24.14538,18.86509 0,0.76502 -42.89456,0.98207 -46.42491,0.23492 z"
       id="path1" /></g></svg>
